<svg xmlns="http://www.w3.org/2000/svg" width="1600" height="1000" viewBox="0 0 1600 1000">
<circle cx="567.1" cy="654.7" r="0.55" fill="#ffffff" opacity="0.46"/>
<circle cx="892.9" cy="850.0" r="0.55" fill="#b9cfff" opacity="0.76"/>
<circle cx="1143.2" cy="504.2" r="0.55" fill="#ffffff" opacity="0.52"/>
<circle cx="959.6" cy="269.1" r="0.55" fill="#ffffff" opacity="0.35"/>
<circle cx="815.4" cy="711.9" r="0.55" fill="#d9e5ff" opacity="0.62"/>
<circle cx="1476.5" cy="954.6" r="0.55" fill="#ffffff" opacity="0.89"/>
<circle cx="607.2" cy="218.0" r="0.55" fill="#ffffff" opacity="0.89"/>
<circle cx="154.1" cy="428.9" r="0.55" fill="#b9cfff" opacity="0.57"/>
<circle cx="1139.6" cy="321.2" r="0.55" fill="#ffffff" opacity="0.77"/>
<circle cx="1270.6" cy="233.1" r="0.55" fill="#d9e5ff" opacity="0.39"/>
<circle cx="668.4" cy="669.4" r="0.55" fill="#ffffff" opacity="0.69"/>
<circle cx="849.5" cy="555.1" r="0.55" fill="#ffffff" opacity="0.29"/>
<circle cx="1202.2" cy="811.5" r="0.55" fill="#ffffff" opacity="0.38"/>
<circle cx="908.2" cy="78.6" r="0.55" fill="#ffffff" opacity="0.32"/>
<circle cx="501.2" cy="22.0" r="0.55" fill="#b9cfff" opacity="0.83"/>
<circle cx="1084.0" cy="810.9" r="0.55" fill="#ffffff" opacity="0.77"/>
<circle cx="1289.7" cy="54.9" r="0.55" fill="#d9e5ff" opacity="0.48"/>
<circle cx="1569.0" cy="4.1" r="0.55" fill="#ffffff" opacity="0.89"/>
<circle cx="112.9" cy="347.9" r="0.55" fill="#d9e5ff" opacity="0.78"/>
<circle cx="1586.8" cy="894.2" r="0.55" fill="#ffffff" opacity="0.51"/>
<circle cx="1014.3" cy="505.1" r="0.55" fill="#ffffff" opacity="0.25"/>
<circle cx="22.4" cy="106.0" r="0.55" fill="#ffffff" opacity="0.51"/>
<circle cx="1025.3" cy="770.1" r="0.55" fill="#d9e5ff" opacity="0.90"/>
<circle cx="592.9" cy="740.9" r="0.55" fill="#ffffff" opacity="0.44"/>
<circle cx="1031.0" cy="383.7" r="0.55" fill="#ffffff" opacity="0.90"/>
<circle cx="799.5" cy="14.2" r="0.55" fill="#b9cfff" opacity="0.43"/>
<circle cx="1185.8" cy="235.8" r="0.55" fill="#ffffff" opacity="0.62"/>
<circle cx="1429.1" cy="348.8" r="0.55" fill="#d9e5ff" opacity="0.81"/>
<circle cx="1059.4" cy="807.6" r="0.55" fill="#ffffff" opacity="0.84"/>
<circle cx="184.8" cy="291.0" r="0.55" fill="#ffffff" opacity="0.62"/>
<circle cx="1137.6" cy="959.1" r="0.55" fill="#ffffff" opacity="0.55"/>
<circle cx="1189.0" cy="830.7" r="0.55" fill="#ffffff" opacity="0.54"/>
<circle cx="34.7" cy="359.6" r="0.55" fill="#b9cfff" opacity="0.72"/>
<circle cx="1200.0" cy="590.1" r="0.55" fill="#ffffff" opacity="0.41"/>
<circle cx="1385.4" cy="347.1" r="0.55" fill="#d9e5ff" opacity="0.84"/>
<circle cx="1014.6" cy="563.8" r="0.55" fill="#d9e5ff" opacity="0.26"/>
<circle cx="136.7" cy="170.3" r="0.55" fill="#ffffff" opacity="0.60"/>
<circle cx="887.5" cy="801.3" r="0.55" fill="#ffffff" opacity="0.39"/>
<circle cx="164.3" cy="976.6" r="0.55" fill="#d9e5ff" opacity="0.82"/>
<circle cx="313.1" cy="917.2" r="0.55" fill="#ffffff" opacity="0.27"/>
<circle cx="945.1" cy="696.2" r="0.55" fill="#d9e5ff" opacity="0.89"/>
<circle cx="380.1" cy="648.5" r="0.55" fill="#b9cfff" opacity="0.29"/>
<circle cx="752.6" cy="415.7" r="0.55" fill="#ffffff" opacity="0.29"/>
<circle cx="1557.3" cy="806.5" r="0.55" fill="#d9e5ff" opacity="0.26"/>
<circle cx="253.4" cy="735.9" r="0.55" fill="#ffffff" opacity="0.55"/>
<circle cx="488.1" cy="391.1" r="0.55" fill="#d9e5ff" opacity="0.29"/>
<circle cx="159.6" cy="257.5" r="0.55" fill="#b9cfff" opacity="0.37"/>
<circle cx="620.0" cy="476.1" r="0.55" fill="#ffffff" opacity="0.43"/>
<circle cx="456.5" cy="443.8" r="0.55" fill="#ffffff" opacity="0.60"/>
<circle cx="317.8" cy="458.8" r="0.55" fill="#ffffff" opacity="0.35"/>
<circle cx="327.4" cy="780.0" r="0.55" fill="#b9cfff" opacity="0.65"/>
<circle cx="1545.5" cy="762.9" r="0.55" fill="#d9e5ff" opacity="0.73"/>
<circle cx="841.1" cy="175.7" r="0.55" fill="#ffffff" opacity="0.56"/>
<circle cx="80.2" cy="407.8" r="0.55" fill="#ffffff" opacity="0.74"/>
<circle cx="82.1" cy="376.5" r="0.55" fill="#d9e5ff" opacity="0.78"/>
<circle cx="1283.9" cy="748.7" r="0.55" fill="#d9e5ff" opacity="0.43"/>
<circle cx="486.3" cy="610.6" r="0.55" fill="#ffffff" opacity="0.56"/>
<circle cx="60.6" cy="825.5" r="0.55" fill="#ffffff" opacity="0.50"/>
<circle cx="783.9" cy="994.1" r="0.55" fill="#ffffff" opacity="0.38"/>
<circle cx="615.8" cy="871.2" r="0.55" fill="#b9cfff" opacity="0.27"/>
<circle cx="785.3" cy="200.9" r="0.55" fill="#ffffff" opacity="0.32"/>
<circle cx="5.4" cy="223.7" r="0.55" fill="#d9e5ff" opacity="0.59"/>
<circle cx="1144.0" cy="207.7" r="0.55" fill="#ffffff" opacity="0.75"/>
<circle cx="70.0" cy="991.5" r="0.55" fill="#b9cfff" opacity="0.28"/>
<circle cx="1451.6" cy="7.1" r="0.55" fill="#ffffff" opacity="0.45"/>
<circle cx="757.7" cy="348.8" r="0.55" fill="#ffffff" opacity="0.89"/>
<circle cx="1227.6" cy="446.5" r="0.55" fill="#d9e5ff" opacity="0.40"/>
<circle cx="1092.2" cy="653.7" r="0.55" fill="#ffffff" opacity="0.73"/>
<circle cx="805.4" cy="263.5" r="0.55" fill="#ffffff" opacity="0.89"/>
<circle cx="1394.2" cy="787.2" r="0.55" fill="#b9cfff" opacity="0.62"/>
<circle cx="631.9" cy="732.5" r="0.55" fill="#d9e5ff" opacity="0.40"/>
<circle cx="1592.5" cy="854.2" r="0.55" fill="#d9e5ff" opacity="0.72"/>
<circle cx="1557.6" cy="298.2" r="0.55" fill="#d9e5ff" opacity="0.81"/>
<circle cx="494.7" cy="774.7" r="0.55" fill="#ffffff" opacity="0.84"/>
<circle cx="347.4" cy="509.9" r="0.55" fill="#d9e5ff" opacity="0.25"/>
<circle cx="285.2" cy="516.1" r="0.55" fill="#ffffff" opacity="0.71"/>
<circle cx="616.5" cy="386.6" r="0.55" fill="#ffffff" opacity="0.54"/>
<circle cx="462.6" cy="750.3" r="0.55" fill="#d9e5ff" opacity="0.57"/>
<circle cx="1300.8" cy="564.2" r="0.55" fill="#ffffff" opacity="0.72"/>
<circle cx="1562.5" cy="848.7" r="0.55" fill="#ffffff" opacity="0.84"/>
<circle cx="104.4" cy="445.1" r="0.55" fill="#b9cfff" opacity="0.76"/>
<circle cx="195.5" cy="811.3" r="0.55" fill="#ffffff" opacity="0.76"/>
<circle cx="94.9" cy="191.3" r="0.55" fill="#ffffff" opacity="0.31"/>
<circle cx="795.4" cy="881.0" r="0.55" fill="#ffffff" opacity="0.81"/>
<circle cx="172.8" cy="996.5" r="0.55" fill="#ffffff" opacity="0.67"/>
<circle cx="523.9" cy="88.7" r="0.55" fill="#ffffff" opacity="0.48"/>
<circle cx="159.8" cy="565.8" r="0.55" fill="#ffffff" opacity="0.87"/>
<circle cx="655.8" cy="440.0" r="0.55" fill="#d9e5ff" opacity="0.73"/>
<circle cx="380.7" cy="759.1" r="0.55" fill="#d9e5ff" opacity="0.48"/>
<circle cx="1061.7" cy="595.5" r="0.55" fill="#ffffff" opacity="0.60"/>
<circle cx="1175.8" cy="829.9" r="0.55" fill="#ffffff" opacity="0.54"/>
<circle cx="1517.2" cy="301.7" r="0.55" fill="#ffffff" opacity="0.88"/>
<circle cx="248.0" cy="199.3" r="0.55" fill="#d9e5ff" opacity="0.68"/>
<circle cx="112.6" cy="306.1" r="0.55" fill="#ffffff" opacity="0.34"/>
<circle cx="1308.9" cy="287.5" r="0.55" fill="#ffffff" opacity="0.37"/>
<circle cx="803.5" cy="806.6" r="0.55" fill="#ffffff" opacity="0.66"/>
<circle cx="469.6" cy="658.7" r="0.55" fill="#ffffff" opacity="0.43"/>
<circle cx="1244.0" cy="658.5" r="0.55" fill="#ffffff" opacity="0.86"/>
<circle cx="1508.8" cy="823.9" r="0.55" fill="#ffffff" opacity="0.56"/>
<circle cx="1.1" cy="739.8" r="0.55" fill="#ffffff" opacity="0.64"/>
<circle cx="1166.8" cy="817.1" r="0.55" fill="#ffffff" opacity="0.63"/>
<circle cx="671.6" cy="364.6" r="0.55" fill="#d9e5ff" opacity="0.51"/>
<circle cx="484.8" cy="221.8" r="0.55" fill="#b9cfff" opacity="0.86"/>
<circle cx="729.5" cy="908.9" r="0.55" fill="#ffffff" opacity="0.45"/>
<circle cx="1572.2" cy="815.9" r="0.55" fill="#d9e5ff" opacity="0.75"/>
<circle cx="769.5" cy="207.8" r="0.55" fill="#d9e5ff" opacity="0.87"/>
<circle cx="1316.7" cy="397.3" r="0.55" fill="#ffffff" opacity="0.47"/>
<circle cx="527.7" cy="603.9" r="0.55" fill="#ffffff" opacity="0.80"/>
<circle cx="1163.3" cy="196.1" r="0.55" fill="#d9e5ff" opacity="0.41"/>
<circle cx="227.4" cy="587.2" r="0.55" fill="#ffffff" opacity="0.44"/>
<circle cx="1447.2" cy="428.5" r="0.55" fill="#ffffff" opacity="0.43"/>
<circle cx="395.4" cy="530.2" r="0.55" fill="#b9cfff" opacity="0.87"/>
<circle cx="1560.2" cy="84.0" r="0.55" fill="#b9cfff" opacity="0.32"/>
<circle cx="850.6" cy="880.8" r="0.55" fill="#ffffff" opacity="0.81"/>
<circle cx="455.5" cy="364.0" r="0.55" fill="#d9e5ff" opacity="0.32"/>
<circle cx="212.8" cy="91.4" r="0.55" fill="#ffffff" opacity="0.88"/>
<circle cx="1472.0" cy="653.0" r="0.55" fill="#ffffff" opacity="0.68"/>
<circle cx="1123.6" cy="373.5" r="0.55" fill="#ffffff" opacity="0.38"/>
<circle cx="1400.9" cy="982.7" r="0.55" fill="#ffffff" opacity="0.81"/>
<circle cx="131.2" cy="947.0" r="0.55" fill="#ffffff" opacity="0.30"/>
<circle cx="999.7" cy="450.9" r="0.55" fill="#ffffff" opacity="0.52"/>
<circle cx="636.4" cy="368.8" r="0.55" fill="#b9cfff" opacity="0.49"/>
<circle cx="876.4" cy="395.3" r="0.55" fill="#d9e5ff" opacity="0.50"/>
<circle cx="114.9" cy="725.2" r="0.55" fill="#b9cfff" opacity="0.72"/>
<circle cx="837.4" cy="513.3" r="0.55" fill="#d9e5ff" opacity="0.81"/>
<circle cx="460.8" cy="602.3" r="0.55" fill="#ffffff" opacity="0.64"/>
<circle cx="465.8" cy="863.2" r="0.55" fill="#d9e5ff" opacity="0.76"/>
<circle cx="1243.3" cy="541.4" r="0.55" fill="#b9cfff" opacity="0.52"/>
<circle cx="207.2" cy="157.7" r="0.55" fill="#b9cfff" opacity="0.60"/>
<circle cx="1363.4" cy="484.7" r="0.55" fill="#b9cfff" opacity="0.61"/>
<circle cx="592.8" cy="687.3" r="0.55" fill="#ffffff" opacity="0.49"/>
<circle cx="95.1" cy="977.1" r="0.55" fill="#d9e5ff" opacity="0.56"/>
<circle cx="17.9" cy="849.0" r="0.55" fill="#b9cfff" opacity="0.41"/>
<circle cx="1255.5" cy="32.2" r="0.55" fill="#ffffff" opacity="0.45"/>
<circle cx="597.9" cy="925.9" r="0.55" fill="#b9cfff" opacity="0.52"/>
<circle cx="13.1" cy="564.2" r="0.55" fill="#b9cfff" opacity="0.53"/>
<circle cx="831.7" cy="840.5" r="0.55" fill="#b9cfff" opacity="0.72"/>
<circle cx="188.9" cy="293.1" r="0.55" fill="#ffffff" opacity="0.27"/>
<circle cx="1278.6" cy="944.3" r="0.55" fill="#d9e5ff" opacity="0.32"/>
<circle cx="774.9" cy="140.5" r="0.55" fill="#b9cfff" opacity="0.82"/>
<circle cx="168.3" cy="529.1" r="0.55" fill="#b9cfff" opacity="0.68"/>
<circle cx="684.2" cy="786.7" r="0.55" fill="#ffffff" opacity="0.63"/>
<circle cx="695.1" cy="264.3" r="0.55" fill="#ffffff" opacity="0.71"/>
<circle cx="1547.9" cy="652.4" r="0.55" fill="#ffffff" opacity="0.73"/>
<circle cx="943.8" cy="144.8" r="0.55" fill="#d9e5ff" opacity="0.89"/>
<circle cx="1350.3" cy="829.2" r="0.55" fill="#d9e5ff" opacity="0.73"/>
<circle cx="711.6" cy="328.3" r="0.55" fill="#b9cfff" opacity="0.88"/>
<circle cx="1391.2" cy="132.3" r="0.55" fill="#d9e5ff" opacity="0.73"/>
<circle cx="727.2" cy="466.3" r="0.55" fill="#b9cfff" opacity="0.57"/>
<circle cx="376.0" cy="656.0" r="0.55" fill="#ffffff" opacity="0.78"/>
<circle cx="661.7" cy="588.7" r="0.55" fill="#ffffff" opacity="0.85"/>
<circle cx="1457.0" cy="480.0" r="0.55" fill="#d9e5ff" opacity="0.72"/>
<circle cx="64.0" cy="25.6" r="0.55" fill="#b9cfff" opacity="0.65"/>
<circle cx="1214.6" cy="10.1" r="0.55" fill="#ffffff" opacity="0.29"/>
<circle cx="1294.4" cy="513.1" r="0.55" fill="#ffffff" opacity="0.76"/>
<circle cx="10.3" cy="123.5" r="0.55" fill="#b9cfff" opacity="0.55"/>
<circle cx="1348.5" cy="180.0" r="0.55" fill="#d9e5ff" opacity="0.54"/>
<circle cx="1448.2" cy="441.3" r="0.55" fill="#ffffff" opacity="0.26"/>
<circle cx="1382.5" cy="519.9" r="0.55" fill="#ffffff" opacity="0.71"/>
<circle cx="310.9" cy="122.7" r="0.55" fill="#b9cfff" opacity="0.64"/>
<circle cx="1048.9" cy="717.9" r="0.55" fill="#b9cfff" opacity="0.85"/>
<circle cx="819.8" cy="582.1" r="0.55" fill="#b9cfff" opacity="0.53"/>
<circle cx="1021.5" cy="660.9" r="0.55" fill="#ffffff" opacity="0.31"/>
<circle cx="1082.4" cy="853.3" r="0.55" fill="#b9cfff" opacity="0.30"/>
<circle cx="876.5" cy="222.0" r="0.55" fill="#ffffff" opacity="0.48"/>
<circle cx="491.9" cy="621.1" r="0.55" fill="#b9cfff" opacity="0.62"/>
<circle cx="1004.9" cy="86.4" r="0.55" fill="#ffffff" opacity="0.35"/>
<circle cx="104.6" cy="333.7" r="0.55" fill="#ffffff" opacity="0.48"/>
<circle cx="885.6" cy="377.7" r="0.55" fill="#ffffff" opacity="0.29"/>
<circle cx="1138.6" cy="60.3" r="0.55" fill="#ffffff" opacity="0.88"/>
<circle cx="1058.4" cy="4.4" r="0.55" fill="#ffffff" opacity="0.73"/>
<circle cx="1199.8" cy="921.1" r="0.55" fill="#d9e5ff" opacity="0.70"/>
<circle cx="1034.5" cy="133.3" r="0.55" fill="#b9cfff" opacity="0.38"/>
<circle cx="1193.0" cy="627.9" r="0.55" fill="#b9cfff" opacity="0.72"/>
<circle cx="253.5" cy="746.8" r="0.55" fill="#b9cfff" opacity="0.69"/>
<circle cx="963.5" cy="261.0" r="0.55" fill="#b9cfff" opacity="0.58"/>
<circle cx="1271.7" cy="263.7" r="0.55" fill="#ffffff" opacity="0.28"/>
<circle cx="1219.2" cy="459.3" r="0.55" fill="#ffffff" opacity="0.61"/>
<circle cx="1024.4" cy="210.9" r="0.55" fill="#ffffff" opacity="0.80"/>
<circle cx="1378.8" cy="75.9" r="0.55" fill="#ffffff" opacity="0.53"/>
<circle cx="1005.3" cy="4.9" r="0.55" fill="#b9cfff" opacity="0.45"/>
<circle cx="455.7" cy="895.0" r="0.55" fill="#ffffff" opacity="0.51"/>
<circle cx="3.1" cy="695.9" r="0.55" fill="#b9cfff" opacity="0.61"/>
<circle cx="173.3" cy="810.4" r="0.55" fill="#d9e5ff" opacity="0.75"/>
<circle cx="1236.1" cy="392.9" r="0.55" fill="#d9e5ff" opacity="0.34"/>
<circle cx="1042.8" cy="290.6" r="0.55" fill="#ffffff" opacity="0.60"/>
<circle cx="1167.8" cy="60.9" r="0.55" fill="#ffffff" opacity="0.41"/>
<circle cx="468.1" cy="228.0" r="0.55" fill="#b9cfff" opacity="0.78"/>
<circle cx="1460.8" cy="446.3" r="0.55" fill="#d9e5ff" opacity="0.75"/>
<circle cx="708.7" cy="448.9" r="0.55" fill="#b9cfff" opacity="0.51"/>
<circle cx="664.8" cy="575.4" r="0.55" fill="#ffffff" opacity="0.68"/>
<circle cx="1507.9" cy="273.7" r="0.55" fill="#ffffff" opacity="0.58"/>
<circle cx="526.0" cy="359.2" r="0.55" fill="#ffffff" opacity="0.58"/>
<circle cx="266.3" cy="479.1" r="0.55" fill="#ffffff" opacity="0.64"/>
<circle cx="1541.4" cy="66.6" r="0.55" fill="#ffffff" opacity="0.32"/>
<circle cx="261.7" cy="278.7" r="0.55" fill="#ffffff" opacity="0.30"/>
<circle cx="1248.0" cy="408.2" r="0.55" fill="#b9cfff" opacity="0.53"/>
<circle cx="261.1" cy="903.5" r="0.55" fill="#b9cfff" opacity="0.55"/>
<circle cx="371.0" cy="292.8" r="0.55" fill="#ffffff" opacity="0.45"/>
<circle cx="989.5" cy="252.0" r="0.55" fill="#b9cfff" opacity="0.83"/>
<circle cx="608.1" cy="619.6" r="0.55" fill="#d9e5ff" opacity="0.59"/>
<circle cx="622.4" cy="596.6" r="0.55" fill="#ffffff" opacity="0.32"/>
<circle cx="1579.1" cy="175.5" r="0.55" fill="#d9e5ff" opacity="0.44"/>
<circle cx="195.8" cy="188.6" r="0.55" fill="#d9e5ff" opacity="0.53"/>
<circle cx="628.8" cy="744.8" r="0.55" fill="#d9e5ff" opacity="0.32"/>
<circle cx="128.8" cy="589.0" r="0.55" fill="#ffffff" opacity="0.59"/>
</svg>
