<svg xmlns="http://www.w3.org/2000/svg" width="1600" height="1000" viewBox="0 0 1600 1000">
<circle cx="1327.6" cy="687.8" r="1.1" fill="#d9e5ff" opacity="0.74"/>
<circle cx="802.2" cy="30.0" r="1.5" fill="#d9e5ff" opacity="0.61"/>
<circle cx="1257.3" cy="552.7" r="1.1" fill="#b9cfff" opacity="0.58"/>
<circle cx="795.0" cy="468.4" r="1.1" fill="#d9e5ff" opacity="0.57"/>
<circle cx="849.6" cy="119.8" r="1.1" fill="#b9cfff" opacity="0.61"/>
<circle cx="615.6" cy="689.0" r="1.5" fill="#b9cfff" opacity="0.67"/>
<circle cx="68.0" cy="882.3" r="1.1" fill="#b9cfff" opacity="0.67"/>
<circle cx="19.8" cy="340.4" r="1.1" fill="#b9cfff" opacity="0.73"/>
<circle cx="154.7" cy="84.9" r="1.1" fill="#ffffff" opacity="0.45"/>
<circle cx="187.4" cy="944.4" r="1.1" fill="#ffffff" opacity="0.39"/>
<circle cx="444.2" cy="998.5" r="1.1" fill="#ffffff" opacity="0.65"/>
<circle cx="1204.5" cy="689.8" r="1.1" fill="#ffffff" opacity="0.41"/>
<circle cx="1059.0" cy="265.8" r="1.1" fill="#ffffff" opacity="0.32"/>
<circle cx="55.7" cy="272.8" r="1.1" fill="#b9cfff" opacity="0.89"/>
<circle cx="523.3" cy="764.5" r="1.5" fill="#d9e5ff" opacity="0.44"/>
<circle cx="618.5" cy="7.7" r="1.5" fill="#ffffff" opacity="0.55"/>
<circle cx="452.9" cy="460.7" r="1.1" fill="#b9cfff" opacity="0.44"/>
<circle cx="1039.3" cy="997.6" r="1.5" fill="#ffffff" opacity="0.50"/>
<circle cx="402.5" cy="546.1" r="1.5" fill="#b9cfff" opacity="0.80"/>
<circle cx="1569.3" cy="139.0" r="1.1" fill="#b9cfff" opacity="0.35"/>
<circle cx="286.9" cy="794.2" r="1.1" fill="#b9cfff" opacity="0.41"/>
<circle cx="938.5" cy="687.1" r="1.1" fill="#ffffff" opacity="0.58"/>
<circle cx="716.8" cy="285.8" r="1.1" fill="#d9e5ff" opacity="0.73"/>
<circle cx="414.7" cy="704.1" r="1.1" fill="#d9e5ff" opacity="0.73"/>
<circle cx="1086.1" cy="35.6" r="1.1" fill="#ffffff" opacity="0.67"/>
<circle cx="35.8" cy="972.8" r="1.1" fill="#ffffff" opacity="0.86"/>
<circle cx="264.4" cy="231.1" r="1.1" fill="#ffffff" opacity="0.82"/>
<circle cx="677.4" cy="22.0" r="1.1" fill="#b9cfff" opacity="0.48"/>
<circle cx="312.3" cy="347.2" r="1.1" fill="#ffffff" opacity="0.26"/>
<circle cx="970.8" cy="136.9" r="1.1" fill="#ffffff" opacity="0.43"/>
<circle cx="1521.1" cy="856.3" r="1.5" fill="#ffffff" opacity="0.39"/>
<circle cx="751.8" cy="271.9" r="1.1" fill="#ffffff" opacity="0.26"/>
<circle cx="1436.4" cy="272.6" r="1.1" fill="#d9e5ff" opacity="0.80"/>
<circle cx="1525.4" cy="565.2" r="1.1" fill="#ffffff" opacity="0.67"/>
<circle cx="953.7" cy="744.2" r="1.1" fill="#d9e5ff" opacity="0.28"/>
<circle cx="1440.7" cy="672.6" r="1.1" fill="#ffffff" opacity="0.56"/>
<circle cx="241.8" cy="301.1" r="1.1" fill="#b9cfff" opacity="0.89"/>
<circle cx="854.3" cy="714.4" r="1.1" fill="#ffffff" opacity="0.40"/>
<circle cx="1064.0" cy="483.2" r="1.1" fill="#ffffff" opacity="0.71"/>
<circle cx="906.9" cy="558.1" r="1.1" fill="#b9cfff" opacity="0.48"/>
<circle cx="1164.4" cy="117.5" r="1.1" fill="#b9cfff" opacity="0.49"/>
<circle cx="1377.6" cy="23.0" r="1.1" fill="#d9e5ff" opacity="0.42"/>
<circle cx="18.9" cy="138.0" r="1.1" fill="#d9e5ff" opacity="0.81"/>
<circle cx="1469.9" cy="725.8" r="1.1" fill="#d9e5ff" opacity="0.44"/>
<circle cx="1536.6" cy="827.7" r="1.1" fill="#ffffff" opacity="0.60"/>
<circle cx="1549.4" cy="752.1" r="1.1" fill="#ffffff" opacity="0.37"/>
<circle cx="875.4" cy="954.0" r="1.1" fill="#d9e5ff" opacity="0.27"/>
<circle cx="869.4" cy="210.6" r="1.1" fill="#ffffff" opacity="0.38"/>
<circle cx="498.5" cy="226.9" r="1.1" fill="#b9cfff" opacity="0.70"/>
<circle cx="259.1" cy="100.7" r="1.1" fill="#b9cfff" opacity="0.31"/>
<circle cx="332.1" cy="255.4" r="1.1" fill="#ffffff" opacity="0.82"/>
<circle cx="1000.1" cy="942.7" r="1.1" fill="#ffffff" opacity="0.43"/>
<circle cx="1340.5" cy="530.5" r="1.1" fill="#ffffff" opacity="0.82"/>
<circle cx="420.8" cy="606.5" r="1.1" fill="#b9cfff" opacity="0.79"/>
<circle cx="1398.2" cy="700.8" r="1.1" fill="#ffffff" opacity="0.39"/>
<circle cx="715.1" cy="501.4" r="1.1" fill="#ffffff" opacity="0.45"/>
<circle cx="839.3" cy="587.3" r="1.1" fill="#d9e5ff" opacity="0.88"/>
<circle cx="961.6" cy="542.8" r="1.1" fill="#d9e5ff" opacity="0.65"/>
<circle cx="11.5" cy="926.8" r="1.1" fill="#ffffff" opacity="0.44"/>
<circle cx="593.1" cy="813.6" r="1.1" fill="#b9cfff" opacity="0.64"/>
<circle cx="1343.9" cy="966.3" r="1.1" fill="#d9e5ff" opacity="0.76"/>
<circle cx="928.6" cy="344.0" r="1.1" fill="#b9cfff" opacity="0.54"/>
<circle cx="769.6" cy="457.9" r="1.1" fill="#ffffff" opacity="0.47"/>
<circle cx="1169.0" cy="354.6" r="1.1" fill="#ffffff" opacity="0.66"/>
<circle cx="168.2" cy="935.5" r="1.1" fill="#ffffff" opacity="0.26"/>
<circle cx="491.7" cy="200.4" r="1.1" fill="#ffffff" opacity="0.89"/>
<circle cx="19.9" cy="371.9" r="1.1" fill="#d9e5ff" opacity="0.29"/>
<circle cx="261.0" cy="846.5" r="1.1" fill="#b9cfff" opacity="0.56"/>
<circle cx="333.6" cy="674.6" r="1.1" fill="#ffffff" opacity="0.72"/>
<circle cx="77.1" cy="647.4" r="1.1" fill="#ffffff" opacity="0.80"/>
<circle cx="1540.4" cy="534.2" r="1.1" fill="#ffffff" opacity="0.67"/>
<circle cx="232.4" cy="255.2" r="1.1" fill="#d9e5ff" opacity="0.30"/>
<circle cx="1157.9" cy="975.1" r="1.5" fill="#d9e5ff" opacity="0.77"/>
<circle cx="351.9" cy="143.0" r="1.1" fill="#ffffff" opacity="0.30"/>
<circle cx="603.8" cy="593.4" r="1.1" fill="#ffffff" opacity="0.28"/>
<circle cx="673.8" cy="54.2" r="1.1" fill="#b9cfff" opacity="0.89"/>
<circle cx="1057.6" cy="439.4" r="1.1" fill="#d9e5ff" opacity="0.70"/>
<circle cx="1419.4" cy="558.0" r="1.1" fill="#ffffff" opacity="0.27"/>
<circle cx="1162.4" cy="956.4" r="1.1" fill="#b9cfff" opacity="0.86"/>
<circle cx="726.1" cy="492.7" r="1.1" fill="#ffffff" opacity="0.30"/>
<circle cx="932.6" cy="2.1" r="1.1" fill="#ffffff" opacity="0.52"/>
<circle cx="1547.2" cy="78.4" r="1.1" fill="#ffffff" opacity="0.42"/>
<circle cx="567.1" cy="705.3" r="1.1" fill="#ffffff" opacity="0.89"/>
</svg>
